<!--?xml version="1.0" standalone="no"?-->
              <svg id="sw-js-blob-svg" viewBox="0 0 100 100" xmlns="http://www.w3.org/2000/svg" version="1.1">
                    <defs> 
                        <linearGradient id="sw-gradient" x1="0" x2="1" y1="1" y2="0">
                            <stop id="stop1" stop-color="rgba(248, 117, 55, 1)" offset="0%"></stop>
                            <stop id="stop2" stop-color="rgba(246.391, 218.414, 172.236, 1)" offset="100%"></stop>
                        </linearGradient>
                    </defs>
                <path fill="url(#sw-gradient)" d="M12.9,-11.8C20.3,-9.1,32.5,-8.5,32.7,-6C33,-3.4,21.2,1,14.7,4.9C8.2,8.7,6.9,12,2.6,18.5C-1.7,25,-8.9,34.7,-12.2,33.5C-15.4,32.3,-14.7,20.2,-17.7,11.8C-20.7,3.4,-27.5,-1.3,-26.1,-3.8C-24.8,-6.3,-15.3,-6.6,-9.6,-9.6C-3.9,-12.6,-1.9,-18.3,0.4,-18.7C2.7,-19.2,5.4,-14.4,12.9,-11.8Z" width="100%" height="100%" transform="translate(50 50)" stroke-width="0" style="transition: 0.3s;"></path>
              </svg>