<!--?xml version="1.0" standalone="no"?-->
              <svg id="sw-js-blob-svg" viewBox="0 0 100 100" xmlns="http://www.w3.org/2000/svg" version="1.1">
                    <defs> 
                        <linearGradient id="sw-gradient" x1="0" x2="1" y1="1" y2="0">
                            <stop id="stop1" stop-color="rgba(248, 117, 55, 1)" offset="0%"></stop>
                            <stop id="stop2" stop-color="rgba(251, 168, 31, 1)" offset="100%"></stop>
                        </linearGradient>
                    </defs>
                <path fill="url(#sw-gradient)" d="M22.4,-34.4C26.5,-27.9,25.5,-17.9,28,-9.3C30.4,-0.7,36.3,6.5,34.2,10.5C32,14.5,21.8,15.2,14.8,18.6C7.7,21.9,3.9,27.9,-0.1,28C-4.1,28.2,-8.2,22.6,-14.7,19.1C-21.1,15.5,-29.8,14,-35,8.8C-40.2,3.6,-41.9,-5.2,-37.3,-9.9C-32.7,-14.5,-21.9,-14.9,-14.6,-20.4C-7.4,-25.9,-3.7,-36.5,2.7,-40.2C9.2,-44,18.4,-41,22.4,-34.4Z" width="100%" height="100%" transform="translate(50 50)" stroke-width="0" style="transition: 0.3s;"></path>
              </svg>